<svg xmlns="http://www.w3.org/2000/svg" width="131" height="22" fill="none">
  <g fill="#fff" clip-path="url(#a)">
    <path d="M82.014 14.597c0-2.479 1.765-4.432 3.988-4.432s3.85 1.9 3.85 4.432c0 2.53-1.653 4.489-3.85 4.489s-3.988-1.985-3.988-4.49Zm-7.649 6.91h3.121V7.738h-3.12v13.769ZM73.877 3.14c0 1.186.95 2.147 2.064 2.147s2.033-.966 2.033-2.147c0-1.103-.924-2.037-2.033-2.037-1.114 0-2.064.934-2.064 2.037ZM61.64 14.565c0-2.478 1.791-4.405 4.096-4.405s4.096 1.927 4.096 4.405-1.817 4.516-4.096 4.516c-2.279.005-4.096-2.006-4.096-4.516Zm-3.172 0c0 4.132 3.203 7.383 7.268 7.383 4.07 0 7.274-3.25 7.274-7.383 0-4.132-3.152-7.267-7.274-7.267s-7.269 3.166-7.269 7.267Zm-8.44 6.941h3.122v-7.214c0-2.861 1.493-4.132 3.988-4.132.462 0 .811.026 1.14.11V7.487c-.324-.11-.894-.194-1.52-.194-4.23 0-6.73 2.699-6.73 6.994v7.22Zm-12.51-6.91c0-2.478 1.767-4.43 3.99-4.43 2.222 0 3.854 1.9 3.854 4.43 0 2.531-1.653 4.49-3.855 4.49-2.197 0-3.988-1.985-3.988-4.49Zm-3.172 0c0 3.991 3.147 7.352 6.864 7.352 1.545 0 2.956-.636 3.798-1.68h.134v1.238h3.12V0h-3.12v8.868h-.134c-.81-.992-2.223-1.57-3.798-1.57-3.743 0-6.864 3.33-6.864 7.299Zm-13.674 6.91h3.12v-8.07c0-1.927 1.274-3.276 3.04-3.276 1.765 0 3.038 1.35 3.038 3.276v8.07h3.121v-8.07c0-3.36-2.633-6.143-6.16-6.143-3.526 0-6.16 2.783-6.16 6.143v8.07ZM6.35 13.247l3.362-9.776h.164l3.363 9.776H6.89ZM0 21.507h3.527l1.765-5.125h9.01l1.765 5.125h3.527L11.745 0H7.838L0 21.506Zm85.704.44c1.546 0 2.957-.635 3.799-1.68h.133v1.24h3.121V0h-3.12v8.868h-.134c-.811-.992-2.223-1.57-3.799-1.57-3.742 0-6.863 3.335-6.863 7.299 0 3.964 3.147 7.35 6.863 7.35ZM128.886 0l-6.673 19.506h-.365L115.175 0h-2.115l7.726 21.953h2.489L131.001 0h-2.115ZM111.817 0h-13.91v1.795h6.082v20.147h1.751V1.795h6.082V0h-.005Z"/>
  </g>
  <defs>
    <clipPath id="a">
      <path fill="#fff" d="M0 0h131v22H0z"/>
    </clipPath>
  </defs>
</svg>