<svg xmlns="http://www.w3.org/2000/svg" width="135" height="23" fill="none">
  <g fill="#fff" clip-path="url(#a)">
    <path fill-rule="evenodd" d="M134.861 21.244c-.012-.076-.023-.151-.036-.226a18.975 18.975 0 0 0-.984-3.69 18.842 18.842 0 0 0-2.13-4.05 18.467 18.467 0 0 0-5.18-5.008l.01-.018.009-.018.54-.957.005-.01c.183-.322.364-.645.546-.968l1.066-1.89c.256-.452.511-.905.765-1.357a1.741 1.741 0 0 0-.011-1.73 1.665 1.665 0 0 0-.574-.587 1.637 1.637 0 0 0-1.016-.23 1.643 1.643 0 0 0-1.053.545 1.745 1.745 0 0 0-.209.293l-.765 1.358-1.066 1.89-.546.967-.545.968-.028.05-.018.031-.073.13-.037-.014a17.628 17.628 0 0 0-6.577-1.267l-.186.001a17.625 17.625 0 0 0-6.393 1.267l-.056-.099-.055-.098-.546-.968-.545-.967-1.066-1.89c-.256-.452-.511-.906-.765-1.358a1.695 1.695 0 0 0-.21-.293 1.641 1.641 0 0 0-1.364-.548c-.247.022-.489.1-.705.233a1.67 1.67 0 0 0-.678.8 1.76 1.76 0 0 0 .093 1.516l.765 1.358 1.066 1.89.546.967.545.968.005.008a.03.03 0 0 0 .004.008 18.189 18.189 0 0 0-3.226 2.625 18.555 18.555 0 0 0-3.3 4.607 18.875 18.875 0 0 0-1.8 5.537l-.03.199-.005.027c-.04.27-.075.541-.103.815h36.016a19.79 19.79 0 0 0-.103-.815l.003-.002Zm-8.54-4.304c.721-.493.826-1.634.234-2.548-.591-.914-1.655-1.255-2.375-.762-.721.493-.826 1.634-.234 2.548.591.914 1.655 1.256 2.375.762Zm-16.564-3.307c.721.493.826 1.634.234 2.548-.591.914-1.655 1.256-2.375.762-.721-.493-.826-1.634-.234-2.548.592-.914 1.655-1.255 2.375-.762Z" clip-rule="evenodd"/>
    <path d="M81.13 15.126c0-2.484 1.744-4.444 3.945-4.444 2.2 0 3.81 1.905 3.81 4.444 0 2.54-1.636 4.5-3.81 4.5-2.174 0-3.946-1.988-3.946-4.5Zm-7.569 6.929h3.087V8.253H73.56v13.802Zm-.483-18.411c0 1.186.94 2.153 2.04 2.153s2.013-.967 2.013-2.153c0-1.105-.913-2.043-2.013-2.043-1.1 0-2.04.938-2.04 2.043ZM60.975 15.099c0-2.485 1.77-4.417 4.052-4.417 2.281 0 4.053 1.932 4.053 4.417 0 2.484-1.799 4.526-4.053 4.526s-4.052-2.015-4.052-4.526Zm-3.14 0c0 4.14 3.166 7.397 7.192 7.397s7.192-3.257 7.192-7.397c0-4.14-3.113-7.287-7.192-7.287-4.079 0-7.193 3.174-7.193 7.287Zm-8.347 6.956h3.087v-7.232c0-2.871 1.475-4.14 3.945-4.14.456 0 .805.027 1.127.11V8.005c-.322-.11-.886-.193-1.503-.193-4.187 0-6.656 2.705-6.656 7.01v7.233Zm-12.372-6.929c0-2.484 1.745-4.444 3.945-4.444 2.2 0 3.811 1.905 3.811 4.444 0 2.54-1.637 4.5-3.81 4.5-2.175 0-3.946-1.988-3.946-4.5Zm-3.14 0c0 4.003 3.113 7.37 6.79 7.37 1.53 0 2.925-.635 3.757-1.684h.134v1.242h3.087V.498h-3.087v8.888h-.134c-.805-.994-2.2-1.573-3.757-1.573-3.703 0-6.79 3.34-6.79 7.314ZM20.45 22.055h3.086v-8.088c0-1.932 1.262-3.285 3.006-3.285 1.745 0 3.006 1.353 3.006 3.285v8.088h3.086v-8.088c0-3.368-2.603-6.155-6.092-6.155-3.489 0-6.092 2.787-6.092 6.155v8.088ZM6.28 13.774l3.328-9.8h.16l3.329 9.8H6.28ZM0 22.054h3.489l1.744-5.134h8.91l1.745 5.134h3.489L11.62.498H7.756L0 22.055Zm84.78.442c1.529 0 2.924-.635 3.757-1.684h.134v1.242h3.086V.498h-3.086v8.888h-.134c-.806-.994-2.201-1.573-3.758-1.573-3.703 0-6.79 3.34-6.79 7.314 0 3.975 3.114 7.37 6.79 7.37Z"/>
  </g>
  <defs>
    <clipPath id="a">
      <path fill="#fff" d="M0 .496h135v22H0z"/>
    </clipPath>
  </defs>
</svg>