<svg xmlns="http://www.w3.org/2000/svg" width="89" height="25" fill="none">
  <path fill="#000" fill-rule="evenodd" d="M50.307.502a2.548 2.548 0 1 0-.005 5.097 2.548 2.548 0 0 0 .005-5.097ZM72.9 15.75c0 .32-.02.635-.054.947h-13.67c.41 2.423 2.442 4.269 4.896 4.269 1.848 0 3.466-1.054 4.32-2.618l3.86.676c-1.33 3.215-4.544 5.478-8.305 5.478-4.943 0-8.95-3.917-8.95-8.752 0-4.836 4.007-8.755 8.95-8.755 4.945 0 8.953 3.919 8.953 8.755Zm-4.213-1.862c-.73-1.91-2.52-3.26-4.615-3.26-2.1 0-3.893 1.35-4.622 3.26h9.237ZM48.018 7.364h4.572v16.825h-4.572V7.364Zm-27.982 3.662V1.968h5.002v22.205h-5.002v-9.058h-9.854v9.058H5.185V1.968h4.997v9.058h9.854ZM40.671 7.37v.902a8.755 8.755 0 0 0-4.554-1.267c-4.847 0-8.778 3.916-8.778 8.748 0 4.832 3.931 8.749 8.778 8.749a8.771 8.771 0 0 0 4.449-1.206v.876h4.46V7.37h-4.355ZM36.34 20.813c-2.829 0-5.116-2.263-5.116-5.058 0-2.797 2.287-5.062 5.116-5.062 2.827 0 5.118 2.265 5.118 5.062 0 2.795-2.29 5.058-5.118 5.058Zm38.553-6.197c.05-4.417 3.25-8.08 7.46-8.815l.757 4.295a4.375 4.375 0 0 0-3.837 4.34l-.002 9.753h-4.377v-9.573Z" clip-rule="evenodd"/>
</svg>