<svg xmlns="http://www.w3.org/2000/svg" width="65" height="33" fill="none">
  <path fill="#000" d="M65 22.256c0 3.215-2.49 5.23-6.426 5.23-3.751 0-6.208-1.924-6.334-5.044h2.822c.185 1.56 1.686 2.581 3.671 2.581 1.965 0 3.332-1.007 3.332-2.415 0-1.221-.836-1.925-2.887-2.428l-2.111-.518c-3.008-.718-4.429-2.222-4.429-4.637 0-3.001 2.516-5.03 6.062-5.03 3.591 0 5.962 2.015 6.028 4.996h-2.775c-.133-1.58-1.408-2.532-3.273-2.532-1.84 0-3.08.938-3.08 2.345 0 1.125.822 1.788 2.821 2.277l1.872.449c3.306.786 4.707 2.201 4.707 4.726ZM43.333 24.906c-2.914 0-4.753-2.394-4.753-6.162 0-3.774 1.839-6.168 4.753-6.168 2.901 0 4.754 2.394 4.754 6.168 0 3.768-1.853 6.162-4.754 6.162Zm0-14.91c-4.753 0-7.734 3.366-7.734 8.748s2.98 8.742 7.734 8.742c4.74 0 7.721-3.353 7.721-8.742 0-5.382-2.98-8.749-7.72-8.749ZM31.161 14.77h2.808v12.433h-2.808V14.77ZM31.001 11.554c0-.89.69-1.594 1.56-1.594.877 0 1.567.704 1.567 1.594 0 .883-.684 1.587-1.567 1.587-.87 0-1.56-.704-1.56-1.587ZM25.942 23.958a36.09 36.09 0 0 1-.556 1.482 17.794 17.794 0 0 1-1.654 3.095c-.87 1.29-1.586 2.184-2.134 2.684-.852.815-1.764 1.227-2.742 1.254-.7 0-1.545-.21-2.531-.632-.988-.42-1.899-.622-2.725-.622-.87 0-1.806.21-2.801.622-1.004.421-1.806.64-2.421.658-.937.044-1.873-.386-2.801-1.29-.6-.542-1.342-1.464-2.228-2.77-.953-1.403-1.746-3.016-2.362-4.867C.33 21.574 0 19.644 0 17.768c0-2.149.447-3.998 1.342-5.542.7-1.245 1.636-2.227 2.8-2.946A7.379 7.379 0 0 1 7.93 8.167c.743 0 1.721.237 2.937.71 1.206.473 1.982.71 2.328.71.253 0 1.114-.28 2.581-.842 1.384-.517 2.548-.728 3.51-.648 2.59.218 4.538 1.28 5.83 3.191-2.32 1.456-3.46 3.498-3.442 6.112.016 2.043.733 3.744 2.134 5.095a6.966 6.966 0 0 0 2.134 1.455Z"/>
  <path fill="#000" d="M12.995 8.069a4.67 4.67 0 0 1-.034-.606c0-1.534.641-3.182 1.789-4.524.573-.684 1.3-1.245 2.177-1.701.877-.447 1.712-.692 2.488-.736.017.21.034.429.034.64 0 1.604-.565 3.095-1.687 4.48-1.35 1.649-2.987 2.596-4.767 2.447Z"/>
</svg>